<svg viewBox="0 0 64 64" xmlns="http://www.w3.org/2000/svg"><path d="M60.5 51.999a1.834 1.834 0 0 0-1.834-1.833H52a1.835 1.835 0 0 0-1.834 1.833v6.667c0 1.012.822 1.833 1.834 1.833h6.666a1.834 1.834 0 0 0 1.834-1.833zm3 6.667a4.834 4.834 0 0 1-4.834 4.833H52a4.834 4.834 0 0 1-4.834-4.833v-6.667A4.835 4.835 0 0 1 52 47.166h6.666a4.834 4.834 0 0 1 4.834 4.833z"/><path d="M13.833 5.333A1.834 1.834 0 0 0 12 3.5H5.333A1.835 1.835 0 0 0 3.5 5.333V12c0 1.011.822 1.833 1.833 1.833H12A1.834 1.834 0 0 0 13.833 12zm3 6.667A4.834 4.834 0 0 1 12 16.833H5.333A4.834 4.834 0 0 1 .5 12V5.333A4.835 4.835 0 0 1 5.333.5H12a4.834 4.834 0 0 1 4.833 4.833z"/><path d="M37.167 28.667a1.834 1.834 0 0 0-1.834-1.833h-6.666a1.835 1.835 0 0 0-1.834 1.833v6.667c0 1.011.822 1.833 1.834 1.833h6.666a1.834 1.834 0 0 0 1.834-1.833zm3 6.667a4.834 4.834 0 0 1-4.834 4.833h-6.666a4.834 4.834 0 0 1-4.834-4.833v-6.667a4.835 4.835 0 0 1 4.834-4.833h6.666a4.834 4.834 0 0 1 4.834 4.833z"/><path d="M60.5 25.333v-10a5.165 5.165 0 0 0-5.166-5.167H28.666a1.5 1.5 0 0 1 0-3h26.668a8.165 8.165 0 0 1 8.165 8.167v10a8.164 8.164 0 0 1-8.166 8.166h-6.666a1.5 1.5 0 1 1 0-3h6.666a5.164 5.164 0 0 0 5.166-5.166"/><path d="M.5 48.667v-10A8.165 8.165 0 0 1 8.667 30.5h6.666a1.5 1.5 0 0 1 0 3H8.667A5.165 5.165 0 0 0 3.5 38.667v10a5.165 5.165 0 0 0 5.167 5.166h26.666a1.5 1.5 0 0 1 0 3H8.667A8.165 8.165 0 0 1 .5 48.667"/></svg>