<svg viewBox="0 0 58 64" xmlns="http://www.w3.org/2000/svg"><path d="M54.167 45.334a1.5 1.5 0 0 1 3 0c0 6.965-5.646 12.61-12.61 12.61h-8.89a1.5 1.5 0 0 1 0-3h8.89a9.61 9.61 0 0 0 9.61-9.61"/><path d="M40.163 49.83a1.5 1.5 0 0 1 2.12 2.12l-4.495 4.493 4.496 4.497a1.5 1.5 0 0 1-2.121 2.121l-5.557-5.556-.1-.11a1.5 1.5 0 0 1 .1-2.013z"/><path d="M.833 18.667c0-6.965 5.646-12.61 12.61-12.61h8.89a1.5 1.5 0 0 1 0 3h-8.89a9.61 9.61 0 0 0-9.61 9.61 1.5 1.5 0 0 1-3 0"/><path d="M15.716.94a1.5 1.5 0 0 1 2.121 0l5.557 5.556a1.5 1.5 0 0 1 0 2.121l-5.557 5.554a1.5 1.5 0 0 1-2.121-2.122l4.495-4.493-4.495-4.496a1.5 1.5 0 0 1 0-2.12"/><path d="M.833 51.58v-.411a1.5 1.5 0 0 1 3 0v.41a3.92 3.92 0 0 0 3.92 3.92h5.83a3.92 3.92 0 0 0 .892-7.735l.683-2.922a6.92 6.92 0 0 1-1.575 13.657h-5.83a6.92 6.92 0 0 1-6.92-6.92M17.5 39.495v-.41a3.92 3.92 0 0 0-3.917-3.92h-5.83a3.92 3.92 0 0 0-3.92 3.92c0 1.82 1.254 3.4 3.027 3.812h.002l8.296 1.944-.683 2.922-8.294-1.945a6.91 6.91 0 0 1-5.348-6.733 6.92 6.92 0 0 1 6.92-6.92h5.83a6.92 6.92 0 0 1 6.917 6.92v.41a1.5 1.5 0 0 1-3 0"/><path d="M54.167 24.589c0-2.345-1.9-4.243-4.244-4.243H40.5v8.486h9.423a4.24 4.24 0 0 0 4.244-4.243m3 0a7.24 7.24 0 0 1-7.244 7.243H39.026a1.53 1.53 0 0 1-1.526-1.526V18.872a1.527 1.527 0 0 1 1.526-1.526h10.897a7.24 7.24 0 0 1 7.244 7.243"/><path d="M52.887 12.923A4.425 4.425 0 0 0 48.463 8.5H40.5v10.347a1.5 1.5 0 0 1-3 0V7A1.5 1.5 0 0 1 39 5.5h9.463a7.425 7.425 0 0 1 7.424 7.423c0 4.107-3.35 7.424-7.46 7.424a1.5 1.5 0 1 1 0-3c2.47 0 4.46-1.991 4.46-4.424"/><path d="M44.167 6.999V3.666a1.5 1.5 0 0 1 3 0v3.333a1.5 1.5 0 0 1-3 0"/><path d="M44.167 33.667v-3.333a1.5 1.5 0 0 1 3 0v3.333a1.5 1.5 0 0 1-3 0"/><path d="M9.167 33.667v-3.333a1.5 1.5 0 0 1 3 0v3.333a1.5 1.5 0 0 1-3 0"/><path d="M9.167 60.333V57a1.5 1.5 0 0 1 3 0v3.333a1.5 1.5 0 0 1-3 0"/></svg>