<svg viewBox="0 0 67 61" xmlns="http://www.w3.org/2000/svg"><path d="M60.513 20.663V10.66a6.837 6.837 0 0 0-6.837-6.837H10.325a6.837 6.837 0 0 0-6.837 6.837v11.672a1.5 1.5 0 0 1-3 0V10.66c0-5.433 4.404-9.837 9.837-9.837h43.351c5.433 0 9.837 4.405 9.837 9.837v10.004a1.5 1.5 0 0 1-3 0"/><path d="M60.513 47.34V37.336a1.5 1.5 0 0 1 3 0V47.34c0 5.432-4.404 9.837-9.837 9.837h-25.01a1.5 1.5 0 0 1 0-3h25.01a6.837 6.837 0 0 0 6.837-6.837"/><path d="M.487 55.677V35.668a1.5 1.5 0 0 1 3 0v20.009a1.5 1.5 0 0 1-3 0"/><path d="M7.358 35.669v-3.335a1.5 1.5 0 0 1 3 0v3.335a1.5 1.5 0 0 1-3 0"/><path d="M7.358 59.013v-3.335a1.5 1.5 0 0 1 3 0v3.335a1.5 1.5 0 0 1-3 0"/><path d="M17.161 50.674a3.5 3.5 0 0 0-3.502-3.502H3.488v7.004h10.171a3.5 3.5 0 0 0 3.502-3.502m3 0a6.5 6.5 0 0 1-6.502 6.502H1.988a1.5 1.5 0 0 1-1.5-1.5V45.672a1.5 1.5 0 0 1 1.5-1.5h11.671a6.5 6.5 0 0 1 6.502 6.502"/><path d="M15.994 40.67a3.503 3.503 0 0 0-3.502-3.502H3.488v7.004h9.004a3.503 3.503 0 0 0 3.502-3.502m3 0a6.503 6.503 0 0 1-6.502 6.502H1.988a1.5 1.5 0 0 1-1.5-1.5V35.668a1.5 1.5 0 0 1 1.5-1.5H12.49a6.503 6.503 0 0 1 6.503 6.502"/><path d="M63.848 23.997a1.835 1.835 0 0 0-1.835-1.835h-8.337a6.837 6.837 0 0 0 0 13.674h8.337A1.835 1.835 0 0 0 63.848 34zm3 10.004a4.835 4.835 0 0 1-4.835 4.835h-8.337c-5.433 0-9.837-4.404-9.837-9.837s4.404-9.837 9.837-9.837h8.337a4.835 4.835 0 0 1 4.835 4.835z"/><path d="M35.335 17.496a1.5 1.5 0 0 1 0 3H18.661a1.5 1.5 0 0 1 0-3z"/></svg>