<svg viewBox="0 0 44 58" xmlns="http://www.w3.org/2000/svg"><path d="M40.5 39a8.5 8.5 0 0 0-8.5-8.5H10.167v17H32a8.5 8.5 0 0 0 8.5-8.5m3 0c0 6.352-5.148 11.5-11.5 11.5H8.667a1.5 1.5 0 0 1-1.5-1.5V29a1.5 1.5 0 0 1 1.5-1.5H32c6.352 0 11.5 5.148 11.5 11.5"/><path d="M37.167 19a8.5 8.5 0 0 0-8.5-8.5h-18.5v17h18.5a8.5 8.5 0 0 0 8.5-8.5m3 0c0 6.352-5.148 11.5-11.5 11.5h-20a1.5 1.5 0 0 1-1.5-1.5V9a1.5 1.5 0 0 1 1.5-1.5h20c6.352 0 11.5 5.148 11.5 11.5"/><path d="M8.667 7.5a1.5 1.5 0 0 1 0 3H2a1.5 1.5 0 0 1 0-3z"/><path d="M8.667 47.5a1.5 1.5 0 0 1 0 3H2a1.5 1.5 0 0 1 0-3z"/><path d="M12.867 9.001V2.334a1.5 1.5 0 0 1 3 0v6.667a1.5 1.5 0 0 1-3 0"/><path d="M24.3 9.001V2.334a1.5 1.5 0 0 1 3 0v6.667a1.5 1.5 0 0 1-3 0"/><path d="M24.3 55.667V49a1.5 1.5 0 0 1 3 0v6.667a1.5 1.5 0 0 1-3 0"/><path d="M12.867 55.667V49a1.5 1.5 0 0 1 3 0v6.667a1.5 1.5 0 0 1-3 0"/></svg>