<svg viewBox="0 0 64 68" xmlns="http://www.w3.org/2000/svg"><path d="M17.606 6.273a1.5 1.5 0 1 1 2.121 2.121l-5 5a1.5 1.5 0 1 1-2.12-2.12z"/><path d="M12.606 1.273a1.5 1.5 0 0 1 2.121 0l5 5a1.5 1.5 0 1 1-2.12 2.121l-5-5a1.5 1.5 0 0 1 0-2.12"/><path d="M.5 17.334c0-6.352 5.148-11.5 11.5-11.5h6.667a1.5 1.5 0 0 1 0 3H12a8.5 8.5 0 0 0-8.5 8.5 1.5 1.5 0 0 1-3 0"/><path d="M49.273 54.607a1.5 1.5 0 1 1 2.12 2.121l-5 5a1.5 1.5 0 1 1-2.12-2.12z"/><path d="M44.273 59.607a1.5 1.5 0 0 1 2.12 0l5 5a1.5 1.5 0 1 1-2.12 2.121l-5-5a1.5 1.5 0 0 1 0-2.12"/><path d="M60.5 50.668a1.5 1.5 0 1 1 3 0c0 6.352-5.148 11.5-11.5 11.5h-6.666a1.5 1.5 0 0 1 0-3H52a8.5 8.5 0 0 0 8.5-8.5"/><path d="M52.236 11.642a1.5 1.5 0 0 1 2.121 0c7.716 7.716 7.716 20.332 0 28.048-.655.656-1.357 1.19-1.995 1.659a1.5 1.5 0 0 1-1.777-2.417c.622-.458 1.167-.879 1.651-1.363 6.544-6.544 6.544-17.261 0-23.806a1.5 1.5 0 0 1 0-2.12"/><path d="M26.31 11.644c7.715-7.716 20.331-7.716 28.047 0a1.5 1.5 0 1 1-2.121 2.121c-6.544-6.544-17.261-6.544-23.806 0-.49.49-.926 1.04-1.392 1.654a1.5 1.5 0 0 1-2.389-1.815c.48-.632 1.017-1.317 1.66-1.96"/><path d="M40.495 41.898C40.264 32.801 32.819 25.5 23.667 25.5c-9.299 0-16.833 7.535-16.833 16.833s7.534 16.834 16.833 16.834c9.153 0 16.597-7.302 16.828-16.4l.006-.434zm2.999.948c-.272 10.718-9.044 19.321-19.827 19.321-10.955 0-19.833-8.879-19.833-19.834S12.712 22.5 23.667 22.5 43.5 31.378 43.5 42.333z"/><path d="M27.087 40.795a5.25 5.25 0 0 1 5.25 5.248l-.007.27a5.24 5.24 0 0 1-5.24 4.982h-8.75a1.5 1.5 0 0 1-1.5-1.5v-7.5a1.5 1.5 0 0 1 1.5-1.5zm-7.247 7.5h7.25a2.243 2.243 0 0 0 2.247-2.248l1.5-.002h-1.5a2.25 2.25 0 0 0-2.25-2.25H19.84z"/><path d="M28.51 38.427a2.366 2.366 0 0 0-2.366-2.37H19.84v6.236a1.5 1.5 0 1 1-3 0v-7.736a1.5 1.5 0 0 1 1.5-1.5h7.804a5.366 5.366 0 0 1 5.366 5.37 5.365 5.365 0 0 1-5.366 5.366 1.5 1.5 0 1 1 0-3 2.365 2.365 0 0 0 2.366-2.366"/></svg>