<svg viewBox="0 0 70 58" xmlns="http://www.w3.org/2000/svg"><path d="M25 20.832a1.5 1.5 0 0 1 0 3H15a1.5 1.5 0 0 1 0-3z"/><path d="M18.5 27.334v-10a1.5 1.5 0 0 1 3 0v10a1.5 1.5 0 0 1-3 0"/><path d="M8.98 5.515a74.66 74.66 0 0 1 52.076.014 11.3 11.3 0 0 1 6.73 7.64l-1.468.381 1.479-.341a78.9 78.9 0 0 1-.298 36.87 8.18 8.18 0 0 1-5.308 5.57l.001.002-3.799 1.266a4.833 4.833 0 0 1-6.015-2.79l-4.662-11.655a1.83 1.83 0 0 0-1.703-1.152H23.982a1.82 1.82 0 0 0-1.638 1.015l-.056.127-4.671 11.68h-.001l-.928-.373-.6-.24 1.528.613a4.82 4.82 0 0 1-6.01 2.774v.001L7.81 55.653v-.001a8.17 8.17 0 0 1-5.236-5.327l-.071-.245-.011-.04a78.9 78.9 0 0 1-.278-36.872 11.3 11.3 0 0 1 6.732-7.64zm50.977 2.806a71.66 71.66 0 0 0-49.91-.002 8.3 8.3 0 0 0-4.927 5.59 75.9 75.9 0 0 0 .275 35.383 5.18 5.18 0 0 0 3.359 3.513l.004.001-.475 1.423-.038.117.513-1.54 3.797 1.266.004.002a1.82 1.82 0 0 0 2.27-1.047l4.673-11.679a4.82 4.82 0 0 1 4.483-3.028h22.029a4.83 4.83 0 0 1 4.488 3.039l4.66 11.653a1.834 1.834 0 0 0 2.283 1.059l3.798-1.266h.004a5.18 5.18 0 0 0 3.356-3.514 75.9 75.9 0 0 0 .276-35.382 8.3 8.3 0 0 0-4.922-5.588m7.84 4.888-1.461.337 1.45-.378q.007.02.01.04"/><path d="M42.454 20.26a2.083 2.083 0 1 1-.206-.01zm-1.12 2.074q0 .046.004.093-.004-.047-.005-.093"/><path d="M54.62 20.26a2.083 2.083 0 1 1-.206-.01zm-1.12 2.074q0 .046.005.093-.004-.047-.005-.093"/><path d="M48.489 26.34h.006a2.082 2.082 0 0 1-.16 4.159 2.084 2.084 0 0 1-1.475-3.557 2.08 2.08 0 0 1 1.32-.601q.077-.008.156-.009z"/><path d="M48.489 14.176h.006a2.082 2.082 0 0 1-.16 4.159 2.084 2.084 0 0 1-1.475-3.557 2.08 2.08 0 0 1 1.32-.601q.077-.009.156-.009z"/></svg>