<svg viewBox="0 0 58 66" xmlns="http://www.w3.org/2000/svg"><path d="M55 45.35v-24.7a4.61 4.61 0 0 0-2.307-3.994l-21.39-12.35a4.62 4.62 0 0 0-4.61 0h-.002L5.307 16.658h-.002A4.6 4.6 0 0 0 3 20.65v24.697a4.61 4.61 0 0 0 2.306 3.994l21.39 12.35a4.62 4.62 0 0 0 4.34.146l.272-.146 21.388-12.35 1.5 2.599-21.39 12.35a7.62 7.62 0 0 1-7.609 0L3.807 51.94l-.22-.13A7.61 7.61 0 0 1 0 45.345V20.65a7.6 7.6 0 0 1 3.809-6.59L25.193 1.708a7.62 7.62 0 0 1 7.61 0l21.39 12.35.22.13A7.61 7.61 0 0 1 58 20.65v24.7a7.6 7.6 0 0 1-3.804 6.589l-1.5-2.599A4.6 4.6 0 0 0 55 45.35"/><path d="M8.5 38.004V28a1.5 1.5 0 0 1 2.56-1.06l7.444 7.443V28a1.5 1.5 0 0 1 3 0v10.004a1.5 1.5 0 0 1-2.56 1.06L11.5 31.622v6.383a1.5 1.5 0 0 1-3 0"/><path d="M24.5 38V28a1.5 1.5 0 0 1 3 0v10a1.5 1.5 0 0 1-3 0"/><path d="M26 26.5h8a1.5 1.5 0 0 1 0 3h-8a1.5 1.5 0 0 1 0-3"/><path d="M26 32.5h6a1.5 1.5 0 0 1 0 3h-6a1.5 1.5 0 0 1 0-3"/><path d="M41.5 38V28a1.5 1.5 0 0 1 3 0v10a1.5 1.5 0 0 1-3 0"/><path d="M38 26.5h10a1.5 1.5 0 0 1 0 3H38a1.5 1.5 0 0 1 0-3"/></svg>