<svg viewBox="0 0 64 70" xmlns="http://www.w3.org/2000/svg"><path d="M3.487 64.677c0 1.013.822 1.834 1.835 1.835v3a4.836 4.836 0 0 1-4.835-4.834zm8.504 1.835v3h-6.67l.001-3zm4.835-1.834a4.837 4.837 0 0 1-4.835 4.834v-3a1.836 1.836 0 0 0 1.835-1.835zM.487 44.668h3v20.009h-3zm13.34 20.009V44.669l3-.001v20.01zm-1.835-24.843.25.007a4.836 4.836 0 0 1 4.584 4.827h-3a1.836 1.836 0 0 0-1.835-1.834H5.322l-.187.01a1.836 1.836 0 0 0-1.648 1.825l-3-.001a4.836 4.836 0 0 1 4.834-4.834z"/><path d="M54.679 62.883a14.85 14.85 0 0 1-7.581 4.058l-9.772 1.954a14.8 14.8 0 0 1-6.51-.155l.728-2.91c1.7.425 3.474.468 5.193.124L46.507 64a11.85 11.85 0 0 0 6.052-3.239zm-35.568.293c1.212 0 2.42.15 3.594.446l8.839 2.208-.729 2.91-8.836-2.208h-.003a11.7 11.7 0 0 0-2.865-.356h-3.785a1.5 1.5 0 1 1 0-3zm41.402-11.839c0-.941-.375-1.844-1.041-2.51h-.001a3.55 3.55 0 0 0-4.643-.33l-8.056 6.042-.268.193a8.16 8.16 0 0 1-4.634 1.44h-6.535a1.5 1.5 0 1 1 0-3h6.536a5.16 5.16 0 0 0 3.1-1.033h.002l8.056-6.043a6.553 6.553 0 0 1 10.484 5.242 6.55 6.55 0 0 1-1.921 4.631l-6.912 6.913-2.121-2.12 6.912-6.914a3.55 3.55 0 0 0 1.042-2.51"/><path d="M43.839 48.61a3.55 3.55 0 0 0-2.398-3.357l-.29-.086-7.644-1.911v-.001a14.2 14.2 0 0 0-3.435-.421l-.523.01a14.14 14.14 0 0 0-7.331 2.369h-.001l-6.059 4.039a1.5 1.5 0 0 1-1.664-2.497l6.06-4.038a17.14 17.14 0 0 1 9.518-2.883v.001c1.403 0 2.8.171 4.161.51h.001l7.642 1.91h.001a6.55 6.55 0 0 1 4.956 6.075l.006.28v1.01l-.008.325a6.55 6.55 0 0 1-6.545 6.228h-4.951a1.5 1.5 0 0 1 0-3h4.952a3.55 3.55 0 0 0 3.547-3.376l.005-.176z"/><path d="M50.34 16.49a9.84 9.84 0 0 1 6.957 2.881l.349.367c3.488 3.862 3.371 9.824-.35 13.545-3.842 3.841-10.07 3.841-13.911 0A9.837 9.837 0 0 1 50.34 16.49m0 3a6.836 6.836 0 0 0-4.834 11.67 6.837 6.837 0 0 0 9.911-9.413l-.242-.254-.245-.234a6.84 6.84 0 0 0-4.59-1.769"/><path d="m23.663 24.585 9.93-9.929-9.93-9.929-9.93 9.93zm12.064-12.037a2.98 2.98 0 0 1 0 4.217L25.77 26.72a2.98 2.98 0 0 1-4.216 0l-9.956-9.955a2.98 2.98 0 0 1 0-4.217l9.956-9.955.111-.106a2.98 2.98 0 0 1 4.105.106z"/></svg>