<svg viewBox="0 0 58 63" xmlns="http://www.w3.org/2000/svg"><path d="M54.167 16.383a5.17 5.17 0 0 0-3.212-4.783L34.289 4.78a13.96 13.96 0 0 0-10.578 0L7.044 11.6v.001l-.47-1.148-.195-.477.664 1.625a5.16 5.16 0 0 0-3.21 4.781v11.89c0 14.309 10.71 27.77 25.167 31.186 14.456-3.415 25.167-16.877 25.167-31.186zm3 11.89c0 15.855-11.88 30.603-27.837 34.19l-.164.027q-.165.018-.332 0l-.163-.027-.745-.176C12.346 58.415.833 43.88.833 28.272v-11.89A8.16 8.16 0 0 1 5.91 8.825l16.666-6.82a16.96 16.96 0 0 1 12.85 0l16.666 6.82-.29.71.29-.71h.001l.285.123a8.17 8.17 0 0 1 4.79 7.436z"/><path d="M38.773 23.69a1.5 1.5 0 0 1 2.12 2.12l-12.5 12.5a1.5 1.5 0 0 1-2.12 0l-7.5-7.5a1.5 1.5 0 1 1 2.12-2.12l6.44 6.439z"/></svg>