<svg viewBox="0 0 72 68" xmlns="http://www.w3.org/2000/svg"><path d="M52.625 34.378a1.66 1.66 0 0 1 2.087.008l.122.109.113.126a1.653 1.653 0 1 1-2.45-.126z"/><path d="M45.5 14.001c0-5.615-4.552-10.167-10.166-10.167S25.166 8.386 25.166 14.001c0 1.787.504 3.458 1.346 4.948a1.5 1.5 0 0 1-2.611 1.477c-1.065-1.884-1.734-4.06-1.735-6.425 0-7.272 5.896-13.167 13.168-13.167s13.165 5.895 13.165 13.167c0 2.01-.482 3.883-1.267 5.562a1.5 1.5 0 0 1-2.718-1.271c.621-1.328.985-2.769.985-4.291"/><path d="M.5 33.526c0-2.507 1.377-4.66 3.372-5.822a1.5 1.5 0 1 1 1.509 2.592c-1.132.659-1.88 1.858-1.881 3.23a3.757 3.757 0 0 0 3.757 3.757h3.076a1.5 1.5 0 0 1 0 3H7.257A6.757 6.757 0 0 1 .5 33.526"/><path d="M68.834 35.45A1.834 1.834 0 0 0 67 33.615h-2.914a1.5 1.5 0 0 1-1.364-.877l-.044-.108-.203-.528c-.984-2.443-2.505-4.616-4.401-6.427l-.412-.383-.112-.112a1.5 1.5 0 0 1-.383-1.001v-7.014h-1.834a8.35 8.35 0 0 0-5.053 1.701l-.265.192a8.06 8.06 0 0 1-4.595 1.44H30.334c-10.219 0-18.5 8.282-18.5 18.5 0 5.469 2.385 10.367 6.168 13.76a1.5 1.5 0 0 1 .498 1.117v8.017c0 1.011.822 1.833 1.834 1.833H27a1.834 1.834 0 0 0 1.834-1.833v-2.894a1.5 1.5 0 0 1 1.5-1.5H42a1.5 1.5 0 0 1 1.5 1.5v3.334c0 1.011.821 1.833 1.833 1.833H52a1.835 1.835 0 0 0 1.834-1.833v-6.03a1.5 1.5 0 0 1 .746-1.297 18.6 18.6 0 0 0 6.752-6.758 1.5 1.5 0 0 1 1.298-.749H67a1.834 1.834 0 0 0 1.834-1.833zm3 10.216A4.834 4.834 0 0 1 67 50.499h-3.528a21.6 21.6 0 0 1-6.639 6.644v5.19a4.835 4.835 0 0 1-4.832 4.833h-6.667a4.834 4.834 0 0 1-4.834-4.833v-1.834h-8.666v1.394A4.834 4.834 0 0 1 27 66.726h-6.666a4.834 4.834 0 0 1-4.833-4.833v-7.364C11.406 50.62 8.834 45.12 8.834 39c0-11.875 9.625-21.5 21.5-21.5H45.42c1.1 0 2.17-.361 3.053-1.027h.001a11.35 11.35 0 0 1 6.86-2.306h3.332a1.5 1.5 0 0 1 1.5 1.5v7.86c2.08 1.991 3.786 4.384 4.938 7.09h1.897a4.834 4.834 0 0 1 4.832 4.833z"/></svg>