<svg viewBox="0 0 34 38" xmlns="http://www.w3.org/2000/svg"><path d="M23.08 13.02a1 1 0 0 1 1.584-.812 13.7 13.7 0 0 0 7.016 2.535v-4.197a10 10 0 0 1-1.482-.283 9.54 9.54 0 0 1-4.754-2.968v-.001A9.55 9.55 0 0 1 23.134 2H18.9v23.836a6.184 6.184 0 0 1-6.18 5.964c-3.387 0-6.2-2.763-6.2-6.2 0-2.04.898-3.605 2.194-4.6A6.2 6.2 0 0 1 12 19.755v-4.403c-2.809-.161-5.108.803-6.756 2.457-1.83 1.836-2.924 4.593-2.924 7.79C2.32 31.665 7.348 36 12.7 36c5.727 0 10.38-4.651 10.38-10.4zm2 12.58c0 6.85-5.547 12.4-12.38 12.4C6.332 38 .32 32.855.32 25.6c0-3.643 1.248-6.935 3.507-9.202 2.275-2.284 5.51-3.457 9.307-2.945a1 1 0 0 1 .866.99v6.32a1 1 0 0 1-1.105.995 4.24 4.24 0 0 0-2.964.828c-.818.629-1.41 1.615-1.41 3.014 0 2.322 1.906 4.198 4.198 4.199a4.184 4.184 0 0 0 4.181-4.02V1a1 1 0 0 1 1-1h6.18l.099.005a1 1 0 0 1 .9.995c0 1.718.585 3.38 1.653 4.718l.22.263.004.004a7.54 7.54 0 0 0 3.766 2.347c.571.155 1.064.222 1.41.25a6 6 0 0 0 .486.02l.015-.001h.101a1 1 0 0 1 .946.999v6.18a1 1 0 0 1-.999 1 15.7 15.7 0 0 1-7.601-1.949z"/></svg>