<svg viewBox="0 0 48 48" xmlns="http://www.w3.org/2000/svg"><path d="M39.4 18.7a1 1 0 1 0-2 0zM6.808 32.51a1 1 0 1 0-1.616 1.179zm-.978-.394a1 1 0 1 0 .34 1.97zm5.57-.815.318.948a1 1 0 0 0 .393-1.651zm-1.8-21.6.88-.473a1 1 0 0 0-1.693-.109zm10.8 9-.236.972a1 1 0 0 0 1.235-.939zm16.2-5.4-.835.55a1 1 0 0 0 .835.45zm5.4 0 .832.555A1 1 0 0 0 42 12.3zm-4.432 4.845a1 1 0 1 0 1.664 1.11zm-.168.553c0 6.116-1.746 11.261-4.925 14.864-3.164 3.586-7.83 5.736-13.875 5.736v2c6.554 0 11.79-2.35 15.375-6.413 3.572-4.048 5.425-9.703 5.425-16.187zM18.6 39.3c-3.407 0-5.724-.883-7.48-2.125-1.786-1.264-3.05-2.937-4.312-4.665l-1.616 1.18c1.253 1.715 2.688 3.642 4.773 5.117 2.116 1.498 4.842 2.493 8.635 2.493zM6.17 34.087l.092-.02.056-.017.06-.02q.068-.021.183-.06c.153-.05.368-.12.623-.205a1276 1276 0 0 0 3.698-1.236l.606-.203.17-.056.044-.016.012-.003.003-.001-.317-.949-.318-.948-.004.001-.011.004-.045.015-.17.057-.605.203-4.31 1.438-.212.069.018-.005.087-.02zm5.941-3.49c-5.662-5.724-6.088-14.182-1.698-20.314L8.787 9.12c-4.946 6.908-4.46 16.454 1.902 22.885zM8.719 10.176c2.312 4.299 6.65 8.332 11.445 9.498l.472-1.943c-4.108-.999-8.039-4.566-10.155-8.502zm12.68 8.56c.08-2.382.922-4.384 2.292-5.784 1.365-1.395 3.308-2.25 5.709-2.25v-2c-2.901 0-5.372 1.045-7.138 2.85-1.762 1.8-2.768 4.298-2.861 7.117zM29.4 10.7c1.676 0 2.94.319 3.933.848.99.529 1.772 1.3 2.432 2.303l1.67-1.101c-.806-1.222-1.82-2.25-3.16-2.966C32.936 9.07 31.335 8.7 29.4 8.7zm7.2 3.6H42v-2h-5.4zm4.568-1.555-3.6 5.4 1.664 1.11 3.6-5.4z"/></svg>