<svg viewBox="0 0 70 61" xmlns="http://www.w3.org/2000/svg"><path d="M63.513 20.663V10.66a6.837 6.837 0 0 0-6.837-6.837H13.325a6.837 6.837 0 0 0-6.837 6.837v5.002a1.5 1.5 0 1 1-3 0V10.66c0-5.433 4.404-9.837 9.837-9.837h43.351c5.433 0 9.837 4.405 9.837 9.837v10.004a1.5 1.5 0 0 1-3 0"/><path d="M63.513 47.34V37.336a1.5 1.5 0 0 1 3 0V47.34c0 5.433-4.405 9.837-9.838 9.837h-18.34a1.5 1.5 0 0 1 0-3h18.34a6.837 6.837 0 0 0 6.838-6.837"/><path d="M.153 31a1.5 1.5 0 0 1 3 0v22.674l.005.079c.024.199.147.506.575.91.492.465 1.284.952 2.386 1.393 2.196.878 5.331 1.456 8.873 1.456s6.677-.578 8.873-1.456c1.102-.441 1.894-.928 2.386-1.393.487-.46.579-.795.58-.987V31a1.5 1.5 0 0 1 3 0v22.678c-.002 1.28-.658 2.35-1.52 3.165-.858.811-2.02 1.473-3.331 1.998-2.63 1.053-6.163 1.67-9.988 1.67-3.826 0-7.358-.617-9.989-1.67-1.31-.525-2.472-1.187-3.33-1.998-.862-.815-1.519-1.884-1.52-3.165z"/><path d="M14.992 24.164c3.823 0 7.355.617 9.986 1.67 1.311.525 2.473 1.187 3.332 1.999.862.815 1.519 1.884 1.52 3.165q0 .08-.008.157c-.05 1.213-.686 2.23-1.513 3.011-.859.812-2.02 1.474-3.332 1.999-2.631 1.053-6.164 1.67-9.99 1.67-3.825 0-7.356-.617-9.987-1.67-1.31-.525-2.472-1.187-3.33-1.999C.807 33.351.152 32.281.152 31c0-1.283.656-2.353 1.518-3.168.86-.812 2.022-1.475 3.333-1.999 2.632-1.052 6.164-1.669 9.988-1.669M3.152 31c.001.191.092.525.579.986.49.465 1.282.953 2.384 1.394 2.195.878 5.331 1.455 8.873 1.455s6.678-.577 8.875-1.455c1.102-.441 1.893-.93 2.385-1.394.487-.461.578-.795.579-.986v-.034c-.01-.196-.118-.518-.578-.952-.491-.465-1.283-.953-2.385-1.394-2.197-.879-5.333-1.456-8.872-1.456-3.54 0-6.677.576-8.874 1.454-1.103.44-1.895.929-2.386 1.394-.488.461-.58.796-.58.988"/><path d="M.155 42.338a1.5 1.5 0 0 1 3 0c0 .191.09.526.578.987.49.465 1.282.952 2.384 1.393 2.195.878 5.331 1.456 8.873 1.456s6.678-.578 8.875-1.456c1.102-.441 1.893-.93 2.385-1.394.488-.461.579-.795.579-.986a1.5 1.5 0 0 1 3 0c0 1.282-.656 2.351-1.518 3.166-.859.812-2.02 1.474-3.332 1.999-2.631 1.053-6.164 1.67-9.99 1.67-3.825 0-7.356-.617-9.987-1.67-1.31-.525-2.472-1.187-3.33-2C.81 44.69.154 43.62.154 42.339"/><path d="M66.848 23.997a1.835 1.835 0 0 0-1.835-1.835h-8.337a6.837 6.837 0 0 0 0 13.674h8.337A1.835 1.835 0 0 0 66.848 34zm3 10.004a4.835 4.835 0 0 1-4.835 4.835h-8.337c-5.433 0-9.837-4.404-9.837-9.837s4.404-9.837 9.837-9.837h8.337a4.835 4.835 0 0 1 4.835 4.835z"/></svg>