<svg viewBox="0 0 64 64" xmlns="http://www.w3.org/2000/svg"><path d="M22.3 37V26a1.5 1.5 0 0 1 3 0v11a1.5 1.5 0 1 1-3 0"/><path d="M23.8 24.5h8.8a1.5 1.5 0 0 1 0 3h-8.8a1.5 1.5 0 0 1 0-3"/><path d="M23.8 35.5h8.8a1.5 1.5 0 0 1 0 3h-8.8a1.5 1.5 0 0 1 0-3"/><path d="M23.8 30h6.6a1.5 1.5 0 0 1 0 3h-6.6a1.5 1.5 0 0 1 0-3"/><path d="M54.206 33.44a1.5 1.5 0 0 1 1.841 1.055c.16.588.69.997 1.3 1.004a1.4 1.4 0 0 0 1.396-1.4h3c0 2.43-1.97 4.401-4.402 4.401h-.011l.011-1.5v-.102L57.33 38.5a4.36 4.36 0 0 1-4.177-3.219 1.5 1.5 0 0 1 1.053-1.84m7.537-4.538c0 .986-.349 1.891-.93 2.598.581.707.93 1.613.93 2.599h-3a1.1 1.1 0 0 0-1.1-1.099 1.5 1.5 0 0 1 0-3 1.1 1.1 0 0 0 1.1-1.099zm-3 0c0-.773-.625-1.4-1.397-1.402a1.36 1.36 0 0 0-1.299 1.005 1.5 1.5 0 0 1-2.894-.786 4.36 4.36 0 0 1 4.177-3.22l.011 1.564V26l-.011-1.5h.011a4.4 4.4 0 0 1 4.402 4.402z"/><path d="M18.833 24.516a1.5 1.5 0 0 1 1.266 1.703l-1.625 11-1.485-.22v.002l1.485.218a1.5 1.5 0 0 1-1.485 1.282h-1.068a1.5 1.5 0 0 1-1.348-.841l-3.266-6.676L8.04 37.66a1.5 1.5 0 0 1-1.348.84H5.625a1.5 1.5 0 0 1-1.484-1.28L5.625 37l-1.484.22-1.625-11a1.501 1.501 0 0 1 2.968-.438l1.166 7.894 3.31-6.763 1.347.659-1.347-.66a1.5 1.5 0 0 1 2.694 0l3.31 6.764 1.167-7.894a1.5 1.5 0 0 1 1.702-1.266"/><path d="M43.315 30.086a4.207 4.207 0 0 1 4.208 4.205l-.006.217a4.2 4.2 0 0 1-4.2 3.993H37a1.5 1.5 0 0 1-1.5-1.5v-5.415a1.5 1.5 0 0 1 1.5-1.5zM38.5 35.5h4.817c.67 0 1.206-.54 1.206-1.205l1.8-.003h-1.8c0-.667-.541-1.207-1.209-1.207H38.5z"/><path d="M43.925 28.794a1.29 1.29 0 0 0-1.291-1.294H38.5v4.086a1.5 1.5 0 0 1-3 0V26a1.5 1.5 0 0 1 1.5-1.5h5.634a4.29 4.29 0 0 1 4.29 4.294 4.29 4.29 0 0 1-4.29 4.292 1.5 1.5 0 0 1 0-3 1.29 1.29 0 0 0 1.29-1.292"/><path d="M60.5 15.333V8.667A5.165 5.165 0 0 0 55.333 3.5H8.667A5.165 5.165 0 0 0 3.5 8.667v6.666a1.5 1.5 0 0 1-3 0V8.667A8.165 8.165 0 0 1 8.667.5h46.666A8.165 8.165 0 0 1 63.5 8.667v6.666a1.5 1.5 0 0 1-3 0"/><path d="M.5 55.335v-6.667a1.5 1.5 0 1 1 3 0v6.667a5.165 5.165 0 0 0 5.167 5.166h46.666a5.165 5.165 0 0 0 5.167-5.166v-6.667a1.5 1.5 0 1 1 3 0v6.667a8.165 8.165 0 0 1-8.167 8.166H8.667A8.165 8.165 0 0 1 .5 55.335"/></svg>