<svg viewBox="0 0 42 36" xmlns="http://www.w3.org/2000/svg"><path d="m40 17.918-.002-.244-.01-.902c-.014-.764-.04-1.82-.092-2.988-.104-2.361-.31-5.091-.705-6.814v-.001c-.392-1.718-1.53-2.982-2.861-3.404l-.276-.076c-.707-.174-1.851-.325-3.268-.445a108 108 0 0 0-5.176-.286 213 213 0 0 0-6.072-.12l-.4-.001h-.277l-.4.002a213 213 0 0 0-6.07.12c-1.75.06-3.587.15-5.174.285-1.62.138-2.884.315-3.547.521-1.323.413-2.463 1.675-2.862 3.406-.394 1.723-.6 4.452-.705 6.813a112 112 0 0 0-.101 3.89L2 17.918v.165l.002.244a112 112 0 0 0 .102 3.89c.104 2.361.31 5.091.704 6.814v.001c.392 1.718 1.53 2.983 2.862 3.405l.276.075c.708.174 1.854.325 3.27.445 1.588.135 3.426.226 5.176.286a213 213 0 0 0 6.07.12l.4.001h.676c.346-.003.845-.007 1.453-.014 1.217-.016 2.87-.046 4.62-.107 1.75-.06 3.587-.151 5.175-.286 1.62-.138 2.883-.314 3.544-.52l.246-.088c1.216-.485 2.242-1.696 2.615-3.319.394-1.723.6-4.452.705-6.813a112 112 0 0 0 .102-3.89l.002-.244zm2 .173-.002.252c-.002.218-.004.532-.01.92-.014.778-.041 1.852-.094 3.043-.104 2.354-.314 5.25-.754 7.171v.003c-.53 2.3-2.101 4.206-4.215 4.866-.897.28-2.367.468-3.97.604-1.635.14-3.51.231-5.276.292a216 216 0 0 1-6.13.121l-.406.001h-.692a217 217 0 0 1-6.128-.122 110 110 0 0 1-5.276-.292c-1.604-.136-3.074-.324-3.973-.604l-.003-.001c-1.983-.626-3.49-2.338-4.102-4.442l-.11-.425C.42 27.557.21 24.66.105 22.306a114 114 0 0 1-.103-3.963L0 18.09v-.18l.002-.252a114 114 0 0 1 .104-3.963c.103-2.354.314-5.252.753-7.173.53-2.302 2.102-4.207 4.215-4.867l.363-.101c.906-.226 2.207-.385 3.61-.504 1.635-.14 3.51-.231 5.276-.292a215 215 0 0 1 6.128-.12l.405-.002h.287l.406.002a215 215 0 0 1 6.13.12 110 110 0 0 1 5.276.292c1.403.119 2.703.279 3.608.505l.362.1.004.001c2.114.668 3.687 2.57 4.211 4.866.44 1.921.65 4.819.754 7.173a114 114 0 0 1 .104 3.963l.002.252z"/><path d="M16.504 11.136a1 1 0 0 1 1 0l10.392 6a1 1 0 0 1 0 1.732l-10.392 6a1 1 0 0 1-1.5-.866v-12l.009-.133a1 1 0 0 1 .491-.733m1.5 11.134 7.39-4.268-7.39-4.268z"/></svg>