<svg width="155" height="32" viewBox="0 0 155 32" fill="none" xmlns="http://www.w3.org/2000/svg">
<path d="M154.999 8.47387H151.66L153.308 0.541016L145.728 8.47387H148.57L147.42 16.4067L154.999 8.47387Z" fill="#5AE4AA"/>
<path d="M30.2155 31.7228C28.1586 30.7344 26.7188 29.7935 25.8962 28.9001C25.0798 28.0146 24.6721 26.7445 24.6729 25.0897V9.28903L28.3082 8.47266V24.4256C28.3082 25.3812 28.4188 26.0861 28.6402 26.5402C28.9047 27.0389 29.3126 27.4469 29.8112 27.7115L31.7688 28.83L30.2155 31.7228Z" fill="#5AE4AA"/>
<path d="M32.8418 19.4947C33.2726 18.3948 33.9223 17.3939 34.7515 16.5527C35.5807 15.7115 36.5722 15.0475 37.6658 14.6009C39.613 13.7831 42.7314 13.4694 45.426 14.6009C46.5197 15.0474 47.5112 15.7114 48.3405 16.5526C49.1698 17.3938 49.8196 18.3948 50.2503 19.4947C51.0896 21.605 51.0896 23.9565 50.2503 26.0668C49.8197 27.1668 49.17 28.1678 48.3407 29.009C47.5114 29.8503 46.5198 30.5142 45.4261 30.9605C42.7355 32.0903 39.6181 31.7806 37.6658 30.9605C36.5722 30.5141 35.5807 29.8502 34.7514 29.0089C33.9222 28.1677 33.2725 27.1667 32.8419 26.0668C32.0026 23.9565 32.0025 21.605 32.8418 19.4947ZM37.6311 26.6784C40.0174 29.0927 43.6842 28.5141 45.4786 26.6784C46.4833 25.6295 47.0441 24.2332 47.0441 22.7807C47.0441 21.3283 46.4833 19.9319 45.4786 18.883C43.4265 16.7851 39.7812 16.7092 37.6311 18.883C36.6157 19.9264 36.0476 21.3248 36.0476 22.7807C36.0476 24.2366 36.6157 25.635 37.6311 26.6784Z" fill="#5AE4AA"/>
<path d="M53.3076 14.3242H56.9429V23.7973C56.9429 26.358 58.8102 28.0619 61.0329 28.0619C63.2551 28.0619 65.1229 26.3574 65.1229 23.7973V14.3242H68.7585V24.112C68.7585 27.4108 66.904 29.2038 66.4164 29.6525C64.3662 31.5374 61.9521 31.6976 61.0329 31.6976C60.7236 31.6976 57.9453 31.7643 55.6494 29.6525C55.1629 29.2052 53.3076 27.4116 53.3076 24.112V14.3242Z" fill="#5AE4AA"/>
<path d="M85.626 29.1793H85.5562C85.518 29.2298 83.8004 31.6965 79.998 31.6965C79.6035 31.6965 76.175 31.8047 73.5659 28.9171C72.0601 27.2283 71.2267 25.0453 71.2241 22.7826C71.2241 19.943 72.706 17.7816 73.6708 16.7173C74.494 15.8129 75.4984 15.0918 76.6186 14.6009C77.7388 14.1101 78.9498 13.8605 80.1728 13.8684C82.6765 13.8684 84.6141 14.95 85.5562 16.3853H85.626V9.28903L89.2613 8.47266V31.2418H85.626V29.1793ZM76.6596 26.6624C77.1519 27.1707 77.7413 27.575 78.3928 27.8513C79.0443 28.1275 79.7446 28.2701 80.4523 28.2706C81.1519 28.2681 81.8438 28.1243 82.4866 27.848C83.1293 27.5717 83.7097 27.1684 84.1928 26.6624C85.2015 25.6226 85.7656 24.2309 85.7656 22.7823C85.7656 21.3336 85.2015 19.9419 84.1928 18.9021C83.7096 18.3962 83.1292 17.9931 82.4865 17.7168C81.8438 17.4405 81.1519 17.2968 80.4523 17.2943C79.7447 17.2948 79.0444 17.4374 78.3929 17.7136C77.7415 17.9898 77.152 18.394 76.6596 18.9021C75.6405 19.9364 75.0692 21.3302 75.0692 22.7823C75.0692 24.2343 75.6405 25.6281 76.6596 26.6624Z" fill="#5AE4AA"/>
<path d="M92.335 9.28901L95.9706 8.47266V16.3853H96.0404C97.1271 14.6105 99.8038 13.8684 101.564 13.8684C102.793 13.8699 104.009 14.1234 105.136 14.6134C106.264 15.1033 107.279 15.8192 108.119 16.7169C110.095 18.8603 110.373 21.3306 110.373 22.7822C110.373 26.0122 108.918 28 108.086 28.8964C105.346 31.8511 101.656 31.6961 101.564 31.6961C99.7775 31.6961 97.1174 30.9399 96.0404 29.1793H95.9706V31.2418H92.335V9.28901ZM105.024 18.8496C104.02 17.8533 102.663 17.2942 101.249 17.2942C99.8345 17.2942 98.4775 17.8533 97.4736 18.8496C96.4713 19.8866 95.9703 21.1975 95.9706 22.7823C95.9706 24.3439 96.4716 25.649 97.4736 26.6976C97.9678 27.1961 98.5559 27.5917 99.2039 27.8617C99.8519 28.1317 100.547 28.2707 101.249 28.2707C101.951 28.2707 102.646 28.1317 103.294 27.8617C103.942 27.5917 104.53 27.1961 105.024 26.6976C106.026 25.6486 106.527 24.3435 106.527 22.7823C106.527 21.198 106.026 19.8871 105.024 18.8496Z" fill="#5AE4AA"/>
<path d="M129.363 27.5723C128.13 29.1132 125.459 31.6346 121.498 31.697C117.403 31.697 115.22 29.552 114.646 28.953C113.053 27.2938 112.164 25.083 112.164 22.7831C112.164 20.4832 113.053 18.2724 114.646 16.6132C115.212 16.0237 117.396 13.8691 121.498 13.8691C123.765 13.8691 126.18 15 127.793 16.7042C130.536 19.6034 130.272 23.2349 130.272 24.0415H116.219C116.282 25.0246 116.68 25.9565 117.348 26.6811C117.858 27.2479 118.482 27.7011 119.179 28.0111C119.876 28.3212 120.63 28.4812 121.393 28.4809C123.35 28.4809 124.982 27.6069 126.287 25.8591L129.363 27.5723ZM126.007 21.0354C125.634 19.7541 124.999 18.7753 124.102 18.0989C123.212 17.4259 122.123 17.0692 121.008 17.0854C119.902 17.0646 118.825 17.436 117.967 18.1339C117.104 18.8331 116.522 19.8002 116.219 21.0353L126.007 21.0354Z" fill="#5AE4AA"/>
<path d="M139.16 31.7262C137.186 30.7943 135.63 29.7565 134.842 28.8998C134.025 28.0143 133.618 26.7442 133.618 25.0894V17.7487H131.556V14.3228H133.618V9.28958L137.253 8.47266V14.3228H140.155V17.7487H137.253C137.253 24.9727 137.245 24.6937 137.275 25.1373C137.324 25.8756 137.369 26.8679 138.757 27.7112L140.72 28.831L139.16 31.7262Z" fill="#5AE4AA"/>
<path d="M18.7068 24.7462L21.9827 27.1159C20.8534 28.5575 19.4079 29.7203 17.7578 30.5146C16.1077 31.3089 14.2972 31.7134 12.466 31.697C9.51624 31.697 3.94675 30.3917 1.42187 24.6125C0.802223 23.184 0.487822 21.6418 0.498814 20.0847C0.498814 13.165 6.20736 8.47314 12.466 8.47314C14.2972 8.45662 16.1077 8.86108 17.7578 9.65531C19.4078 10.4495 20.8533 11.6123 21.9827 13.0538L18.6337 15.5654C17.9603 14.5513 17.0437 13.722 15.9676 13.153C14.8914 12.5841 13.6899 12.2936 12.4727 12.3081C8.25087 12.3081 4.76734 15.8949 4.76734 20.0847C4.76734 24.2719 8.24824 27.8617 12.4727 27.8617C12.8624 27.8617 16.3729 27.9338 18.7068 24.7462Z" fill="#5AE4AA"/>
</svg>
