<svg width="137" height="44" viewBox="0 0 137 44" fill="none" xmlns="http://www.w3.org/2000/svg">
<path d="M63.1462 0.644531H51.9719C48.7256 0.644531 46.0859 3.54534 46.0859 7.11266V14.1498C46.0859 17.7017 48.7256 20.5914 51.9719 20.5914H63.1462C66.3925 20.5914 69.0322 17.7017 69.0322 14.1498V7.11266C69.0322 3.54756 66.3925 0.644531 63.1462 0.644531ZM49.7543 7.11266C49.7543 5.41204 50.6653 4.22294 51.9719 4.22294H63.1462C64.4527 4.22294 65.3637 5.41204 65.3637 7.11266V14.1234C65.3637 15.8239 64.4527 17.013 63.1462 17.013H51.9719C50.6653 17.013 49.7543 15.8239 49.7543 14.1234V7.11266Z" fill="#5AE4AA"/>
<path d="M92.3672 4.22294H101.599V20.5914H104.572C104.957 20.5914 105.266 20.2903 105.266 19.9161V4.22294H113.669C114.054 4.22294 114.362 3.92178 114.362 3.54756V0.644531H92.3628V4.22294H92.3672Z" fill="#5AE4AA"/>
<path d="M24.0947 43.3359H42.3793C42.7526 43.3359 43.0569 43.0348 43.0569 42.6605V39.7575H27.6721V35.1383H39.7107V31.56H27.6721V26.9652H42.3793C42.7526 26.9652 43.0569 26.664 43.0569 26.2898V23.3867H24.0969V43.3359H24.0947Z" fill="#5AE4AA"/>
<path d="M44.2549 26.9674H53.2561V43.3359H56.1558C56.529 43.3359 56.8334 43.0348 56.8334 42.6605V26.9652H65.0258C65.3991 26.9652 65.7035 26.664 65.7035 26.2898V23.3867H44.2549V26.9674Z" fill="#5AE4AA"/>
<path d="M66.7012 26.9674H75.7025V43.3359H78.6021C78.9754 43.3359 79.2798 43.0348 79.2798 42.6605V26.9652H87.4722C87.8455 26.9652 88.15 26.664 88.15 26.2898V23.3867H66.7012V26.9674Z" fill="#5AE4AA"/>
<path d="M89.3413 43.3336H92.2409C92.6142 43.3336 92.9187 43.0325 92.9187 42.6583V23.3867H89.3413V43.3336Z" fill="#5AE4AA"/>
<path d="M111.199 38.192L97.9112 23.6105C97.7823 23.4687 97.6001 23.389 97.4113 23.389H94.3071V43.3359H97.2069C97.5802 43.3359 97.8845 43.0348 97.8845 42.6605V28.5329L111.374 43.3336H114.1C114.474 43.3336 114.778 43.0325 114.778 42.6583V23.3867H111.201V38.192H111.199Z" fill="#5AE4AA"/>
<path d="M121.8 26.9652H136.322C136.696 26.9652 137 26.6639 137 26.2898V23.3867H121.8C118.635 23.3867 116.06 26.2875 116.06 29.8548V36.892C116.06 40.4439 118.635 43.3336 121.8 43.3336H137V32.2331C137 31.861 136.697 31.5577 136.322 31.5577H122.59L122.588 35.136H133.445V39.7552H121.8C120.526 39.7552 119.637 38.5661 119.637 36.8654V29.8548C119.635 28.1542 120.526 26.9652 121.8 26.9652Z" fill="#5AE4AA"/>
<path d="M39.6466 0.644531H23.6128V20.5914H26.5858C26.9702 20.5914 27.2791 20.2903 27.2791 19.9161V13.273L39.6443 13.2752C42.5018 13.2752 44.7416 11.1694 44.7416 8.05377V6.20478C44.7416 3.19104 42.4085 0.644531 39.6466 0.644531ZM41.073 8.15341C41.073 9.74333 40.4864 9.69682 39.3288 9.69682H27.2791V4.22294H39.3288C40.4864 4.22294 41.073 4.51302 41.073 6.10292V8.15341Z" fill="#5AE4AA"/>
<path d="M91.5518 20.5914L85.468 13.2752H86.4101C89.2676 13.2752 91.5074 11.1694 91.5074 8.05377V6.20478C91.5074 3.19104 89.1743 0.644531 86.4101 0.644531H70.3765V20.5914H73.3494C73.7338 20.5914 74.0426 20.2903 74.0426 19.9161V13.273L80.7086 13.2752L86.7923 20.5937H91.5518V20.5914ZM74.0449 4.22293H86.0946C87.2523 4.22293 87.8389 4.51301 87.8389 6.10292V8.15341C87.8389 9.74333 87.2523 9.69682 86.0946 9.69682H74.0449V4.22293Z" fill="#5AE4AA"/>
<path d="M1.15771 43.3502V23.3789H15.6516C17.2425 23.3789 18.5935 23.8993 19.5646 24.8847C20.6022 25.941 21.1732 27.4976 21.1732 29.2669C21.1732 30.2656 20.9888 31.2 20.6244 32.0393C20.5355 32.243 20.4822 32.3182 20.4532 32.3448C20.4445 32.3515 20.4399 32.3626 20.4422 32.3737C20.4445 32.3847 20.4511 32.3936 20.46 32.4003C20.46 32.4003 20.6466 32.4932 20.8799 32.6638L20.9221 32.697C20.9865 32.7479 21.0288 32.781 21.0688 32.8143L21.0955 32.8365C21.1843 32.9117 21.2643 32.987 21.3399 33.0623C22.3775 34.1186 22.9486 35.6753 22.9486 37.4446C22.9486 39.216 22.3775 40.7704 21.3399 41.8267C20.3711 42.8121 19.0179 43.3347 17.427 43.3347H5.41501C5.37946 43.3347 5.34391 43.3391 5.30835 43.348H1.15771V43.3502ZM5.01283 35.1637C5.00394 35.1637 4.99505 35.1681 4.98839 35.1726C4.98172 35.1793 4.9795 35.1881 4.9795 35.197V39.7054C4.9795 39.7231 4.99505 39.7386 5.01283 39.7386H16.6915C17.6492 39.7386 18.4358 39.4751 18.9046 38.9968C19.269 38.627 19.4467 38.12 19.4467 37.449C19.4467 36.5588 19.1379 36.1381 18.9068 35.9011C18.4713 35.4582 17.7802 35.2036 16.9071 35.166L5.01283 35.1637ZM14.9183 31.561C15.8761 31.561 16.6626 31.2974 17.1314 30.8192C17.3648 30.5822 17.6736 30.1615 17.6736 29.2713C17.6736 28.379 17.3648 27.9604 17.1314 27.7235C16.6604 27.2452 15.8738 26.9817 14.9162 26.9817H5.01283C4.99505 26.9817 4.9795 26.9972 4.9795 27.0149V31.5277C4.9795 31.5455 4.99505 31.561 5.01283 31.561H6.74819C6.75708 31.561 6.76597 31.5566 6.77041 31.5522L14.9183 31.561Z" fill="#5AE4AA"/>
<path d="M16.9558 8.78764H6.61486C5.68607 8.78764 4.92394 8.52634 4.47065 8.05247C4.24846 7.81996 3.95294 7.41031 3.95294 6.53343C3.95294 5.65654 4.24846 5.24689 4.47065 5.01438C4.92394 4.54051 5.68607 4.27921 6.61486 4.27921H21.8687L21.8931 1.32083C21.8976 0.935533 21.5865 0.621094 21.1998 0.621094H5.89938C4.34623 0.621094 3.02416 1.14368 2.0776 2.13128C1.05994 3.19196 0.5 4.7553 0.5 6.53121C0.5 8.30934 1.05994 9.87267 2.0776 10.9333C3.02638 11.921 4.34845 12.4435 5.89938 12.4435H16.2405C17.1693 12.4435 17.9314 12.7048 18.3846 13.1787C18.6068 13.4113 18.9023 13.8209 18.9023 14.6978C18.9023 15.5746 18.6068 15.9843 18.3846 16.2168C17.9292 16.6907 17.1693 16.952 16.2405 16.952H1.86207C1.47767 16.952 1.16659 17.2642 1.16881 17.6495L1.18214 20.61H16.9558C18.5091 20.61 19.8311 20.0875 20.7777 19.0999C21.7953 18.0415 22.3553 16.4781 22.3553 14.6999C22.3553 12.9219 21.7953 11.3585 20.7777 10.2978C19.8311 9.30801 18.5091 8.78764 16.9558 8.78764Z" fill="#5AE4AA"/>
<path d="M131.601 8.79831H121.26C120.331 8.79831 119.569 8.53703 119.115 8.06315C118.893 7.83064 118.598 7.42099 118.598 6.54631C118.598 5.67164 118.893 5.26199 119.115 5.02947C119.569 4.55561 120.331 4.29431 121.26 4.29431H135.478C135.861 4.29431 136.169 3.98873 136.172 3.60787L136.195 0.640625H120.542C118.989 0.640625 117.669 1.161 116.72 2.1486C115.702 3.20707 115.143 4.76819 115.143 6.5441C115.143 8.32001 115.702 9.88114 116.72 10.9396C117.669 11.9272 118.989 12.4476 120.542 12.4476H130.883C131.812 12.4476 132.574 12.7088 133.027 13.1805C133.249 13.413 133.545 13.8227 133.545 14.6973C133.545 15.572 133.249 15.9817 133.027 16.2141C132.572 16.6881 131.812 16.9471 130.883 16.9471H116.505C116.12 16.9471 115.809 17.2594 115.811 17.6424L115.825 20.6008H131.598C133.152 20.6008 134.474 20.0783 135.42 19.0906C136.438 18.0322 136.998 16.4711 136.998 14.6952C136.998 12.9193 136.438 11.3581 135.42 10.2996C134.475 9.3209 133.154 8.79831 131.601 8.79831Z" fill="#5AE4AA"/>
</svg>
