<svg width="93" height="47" viewBox="0 0 93 47" fill="none" xmlns="http://www.w3.org/2000/svg">
<path d="M6.02942 14.0322C6.00595 7.85497 9.98322 4.42916 17.2851 4.40349C22.5396 4.38482 23.4787 7.80129 23.4787 9.0428C23.4787 11.4208 20.0931 13.9435 20.0931 13.9435C20.0931 13.9435 20.2809 15.4253 23.1876 15.4137C26.0942 15.402 28.9258 13.4954 28.9093 8.72309C28.8952 3.24133 23.1172 0.734987 17.4048 0.75599C12.6269 0.772326 -0.0444919 1.43975 0.000117483 13.9435C0.042379 25.0493 21.1309 26.0295 21.1473 33.1401C21.1755 40.8622 12.4602 42.9415 9.5113 42.9415C6.56239 42.9415 5.36263 40.8669 5.35794 39.728C5.3368 33.4738 11.5985 31.7329 11.5985 31.7329C11.5985 31.2662 11.2323 29.1869 8.80694 29.1962C2.55929 29.2079 0.0705533 34.5473 0.0893362 39.7607C0.105771 44.1946 3.25895 46.9624 8.02041 46.9437C17.1254 46.911 27.3926 42.4957 27.355 32.6897C27.3222 23.5185 6.05525 21.1241 6.02942 14.0322Z" fill="#5AE4AA"/>
<path d="M92.8279 38.6038C92.7551 38.4288 92.5508 38.4708 92.2808 38.6925C91.2477 39.5396 88.8858 41.9386 83.3589 41.9596C73.2819 41.9969 71.5328 25.4887 71.5328 25.4887C71.5328 25.4887 79.2126 19.7899 80.4124 17.4912C81.6121 15.1926 77.7945 14.6908 77.7945 14.6908C77.7945 14.6908 72.4226 21.1877 68.6144 23.092C69.0276 20.2659 71.845 13.8251 72.007 10.1215C72.169 6.41803 67.5203 7.32116 66.7783 7.67587C66.7783 9.29309 62.6719 23.9741 61.1763 32.0439C60.2959 33.4441 59.0374 35.045 57.9105 35.0473C57.2578 35.0473 57.0183 33.8455 57.0112 32.1232C57.0112 29.7336 58.3354 25.904 58.326 23.5774C58.326 21.9672 57.5818 21.8715 56.9408 21.8738C56.8023 21.8738 56.0322 21.8948 55.8913 21.8948C54.2478 21.8948 54.7878 20.4946 53.3087 20.5086C48.782 20.525 43.0156 25.4373 42.7644 32.8513C41.236 33.8571 39.0971 35.1243 38.0053 35.129C36.8595 35.129 36.5755 34.0765 36.5731 33.1664C36.5731 31.5678 39.1745 22.0699 39.1745 22.0699C39.1745 22.0699 42.4874 21.2251 43.9337 20.9474C45.0278 20.735 45.3424 20.6557 45.7673 20.1306C46.1923 19.6055 47.0234 18.5204 47.6949 17.5449C48.3664 16.5694 47.7067 15.8157 46.4646 15.8203C44.8352 15.8203 40.4753 16.8471 40.4753 16.8471C40.4753 16.8471 42.5695 7.8719 42.5672 7.68987C42.5649 7.50785 42.3324 7.41217 41.9779 7.4145C41.1843 7.4145 39.7685 7.83923 38.8623 8.16127C37.4747 8.65367 36.3454 10.3432 36.1176 11.1297C35.8899 11.9161 34.3215 18.0746 34.3215 18.0746C34.3215 18.0746 25.9232 20.9567 24.7751 21.3884C24.7409 21.4001 24.7111 21.4221 24.6901 21.4514C24.669 21.4807 24.6577 21.5158 24.6577 21.5518C24.6577 21.6265 25.618 25.2856 27.5878 25.2716C28.9966 25.2716 33.1358 23.5867 33.1358 23.5867C33.1358 23.5867 31.0087 31.9879 31.0228 34.7883C31.0228 36.5852 31.875 38.6901 35.4062 38.6785C38.6932 38.6785 41.5694 36.9912 43.18 35.8174C44.0604 38.0321 46.1406 38.6388 47.5611 38.6341C50.7448 38.6341 53.196 36.1091 53.5106 35.7707C53.9238 36.7415 54.8982 38.6061 57.1239 38.5991C58.3824 38.5991 59.6855 37.1989 60.6457 35.8408C60.6275 36.123 60.6315 36.4062 60.6575 36.6879C61.0425 40.1697 66.243 38.1231 66.5271 37.6377C66.7032 35.1197 66.5929 29.9716 67.6048 26.7932C68.9478 37.6353 74.0426 44.928 83.2016 44.8953C88.3223 44.8767 90.9496 43.4135 92.0366 42.207C92.4731 41.727 92.7757 41.1421 92.9145 40.51C93.0533 39.878 93.0234 39.2208 92.8279 38.6038ZM48.8829 35.0286C44.4854 35.045 50.2283 23.7151 53.9802 23.7011C53.9848 25.1619 53.9027 35.0123 48.8829 35.0286Z" fill="#5AE4AA"/>
<path d="M84.584 38.5C88.5543 38.486 91.6276 35.8886 92.1911 35.0438C92.9189 33.9447 91.3459 32.2855 90.8458 32.3135C89.592 33.506 88.2819 34.9482 85.3401 34.9575C81.877 34.9715 82.6611 31.184 82.6611 31.184C82.6611 31.184 89.3267 32.0404 92.0056 27.2774C92.8626 25.7536 92.8978 23.6463 92.5527 22.7385C92.2075 21.8307 90.2682 20.1504 87.1831 20.4048C83.3937 20.7222 78.6181 24.6497 77.5686 29.3661C76.7257 33.1606 78.3199 38.5233 84.584 38.5ZM88.8102 22.6078C89.4347 22.5868 89.3784 23.6089 89.2117 24.6777C88.9769 26.1269 86.9742 29.8118 83.1518 29.6671C83.4172 27.5225 86.2604 22.6918 88.8172 22.6078H88.8102Z" fill="#5AE4AA"/>
</svg>
